# xmcd CD database file
#
# Track frame offsets:
#	150
#	20371
#	42187
#	58862
#	77481
#	93996
#	108019
#	121611
#	139473
#	156926
#	171922
#	188591
#	200376
#	218144
#	231828
#	242965
#	255991
#	275744
#	294681
#	311504
#
# Disc length: 4301 seconds
#
# Revision: 0
# Processed by: cddbd v1.4PL0 Copyright (c) Steve Scherf et al.
# Submitted via: CDex 1.40Beta9
#
DISCID=1710cb14
DTITLE=Various Artist - NFS 79
DYEAR=2003
DGENRE=Country
TTITLE0=Eric Bogle - As If He Knows
TTITLE1=Adam Brand - The Anzac
TTITLE2=Katrina McAndrew - Riverbed
TTITLE3=The Webb Brothers - Swagman
TTITLE4=Arthur Blanch - My Country
TTITLE5=Melinda Schneider - Can You hear me down the hillside
TTITLE6=Johnny Chester - Band New
TTITLE7=mark Tempany - Riding High
TTITLE8=Rosanne Cash - Rules of Travel
TTITLE9=Tom Maxwell - Bandy the Rodeo Clown
TTITLE10=Nitty Gritty Dirt Band - The Lowlands
TTITLE11=The Be Good Tanyas - It's Not Happening
TTITLE12=Blake Shelton - The Baby
TTITLE13=Shane Teinaki - Fire Without A Spark
TTITLE14=Becky Willis - Green Lights
TTITLE15=John Beland ( with Alison Krauss) - Never Be Anyone Else But You
TTITLE16=Allan Caswell - One Day I'll Go To Texas
TTITLE17=Naked Poets - bobby - Bingo
TTITLE18=Johnny Greenwood - The Ghosts of Combo Waterhole
TTITLE19=Hayseed Dixie - Highway To Hell
EXTD=YEAR: 2003 ID3G: 2
EXTT0=
EXTT1=
EXTT2=
EXTT3=
EXTT4=
EXTT5=
EXTT6=
EXTT7=
EXTT8=
EXTT9=
EXTT10=
EXTT11=
EXTT12=
EXTT13=
EXTT14=
EXTT15=
EXTT16=
EXTT17=
EXTT18=
EXTT19=
PLAYORDER=
